<mxfile host="app.diagrams.net" agent="Mozilla/5.0 (Windows NT 10.0; Win64; x64) AppleWebKit/537.36 (KHTML, like Gecko) Chrome/129.0.0.0 Safari/537.36" version="24.7.17">
  <diagram name="Page-1" id="vAJKd0C6Hjer9LV7Zgd-">
    <mxGraphModel dx="1434" dy="818" grid="1" gridSize="10" guides="1" tooltips="1" connect="1" arrows="1" fold="1" page="1" pageScale="1" pageWidth="850" pageHeight="1100" math="0" shadow="0">
      <root>
        <mxCell id="0" />
        <mxCell id="1" parent="0" />
        <mxCell id="dURBCFSNChAHhOq4-zn5-35" value="" style="edgeStyle=orthogonalEdgeStyle;rounded=0;orthogonalLoop=1;jettySize=auto;html=1;" parent="1" source="dURBCFSNChAHhOq4-zn5-36" target="dURBCFSNChAHhOq4-zn5-38" edge="1">
          <mxGeometry relative="1" as="geometry" />
        </mxCell>
        <mxCell id="dURBCFSNChAHhOq4-zn5-36" value="start" style="rounded=1;whiteSpace=wrap;html=1;" parent="1" vertex="1">
          <mxGeometry x="360" y="40" width="140" height="60" as="geometry" />
        </mxCell>
        <mxCell id="dURBCFSNChAHhOq4-zn5-37" value="" style="edgeStyle=orthogonalEdgeStyle;rounded=0;orthogonalLoop=1;jettySize=auto;html=1;" parent="1" source="dURBCFSNChAHhOq4-zn5-38" target="dURBCFSNChAHhOq4-zn5-47" edge="1">
          <mxGeometry relative="1" as="geometry" />
        </mxCell>
        <mxCell id="dURBCFSNChAHhOq4-zn5-38" value="int num;&lt;div&gt;bool isComplex = false;&lt;br&gt;&lt;/div&gt;" style="shape=parallelogram;perimeter=parallelogramPerimeter;whiteSpace=wrap;html=1;fixedSize=1;" parent="1" vertex="1">
          <mxGeometry x="352.5" y="150" width="155" height="60" as="geometry" />
        </mxCell>
        <mxCell id="dURBCFSNChAHhOq4-zn5-39" value="true" style="edgeStyle=orthogonalEdgeStyle;rounded=0;orthogonalLoop=1;jettySize=auto;html=1;" parent="1" source="dURBCFSNChAHhOq4-zn5-41" target="dURBCFSNChAHhOq4-zn5-44" edge="1">
          <mxGeometry relative="1" as="geometry" />
        </mxCell>
        <mxCell id="dURBCFSNChAHhOq4-zn5-40" value="" style="edgeStyle=orthogonalEdgeStyle;rounded=0;orthogonalLoop=1;jettySize=auto;html=1;" parent="1" source="dURBCFSNChAHhOq4-zn5-41" target="dURBCFSNChAHhOq4-zn5-66" edge="1">
          <mxGeometry relative="1" as="geometry" />
        </mxCell>
        <mxCell id="dURBCFSNChAHhOq4-zn5-41" value="i = 3; i * i &amp;lt; num; i += 2" style="shape=hexagon;perimeter=hexagonPerimeter2;whiteSpace=wrap;html=1;fixedSize=1;" parent="1" vertex="1">
          <mxGeometry x="360" y="710" width="140" height="80" as="geometry" />
        </mxCell>
        <mxCell id="dURBCFSNChAHhOq4-zn5-42" value="false" style="edgeStyle=orthogonalEdgeStyle;rounded=0;orthogonalLoop=1;jettySize=auto;html=1;exitX=1;exitY=0.5;exitDx=0;exitDy=0;entryX=0.5;entryY=0;entryDx=0;entryDy=0;" parent="1" source="dURBCFSNChAHhOq4-zn5-44" target="dURBCFSNChAHhOq4-zn5-41" edge="1">
          <mxGeometry x="-0.8723" relative="1" as="geometry">
            <Array as="points">
              <mxPoint x="760" y="750" />
              <mxPoint x="760" y="690" />
              <mxPoint x="430" y="690" />
            </Array>
            <mxPoint as="offset" />
          </mxGeometry>
        </mxCell>
        <mxCell id="dURBCFSNChAHhOq4-zn5-43" value="true" style="edgeStyle=orthogonalEdgeStyle;rounded=0;orthogonalLoop=1;jettySize=auto;html=1;entryX=0.5;entryY=0;entryDx=0;entryDy=0;" parent="1" source="dURBCFSNChAHhOq4-zn5-44" target="dURBCFSNChAHhOq4-zn5-62" edge="1">
          <mxGeometry relative="1" as="geometry">
            <mxPoint x="645" y="830" as="targetPoint" />
          </mxGeometry>
        </mxCell>
        <mxCell id="dURBCFSNChAHhOq4-zn5-44" value="num % i == 0" style="rhombus;whiteSpace=wrap;html=1;" parent="1" vertex="1">
          <mxGeometry x="590" y="710" width="110" height="80" as="geometry" />
        </mxCell>
        <mxCell id="dURBCFSNChAHhOq4-zn5-45" value="true" style="edgeStyle=orthogonalEdgeStyle;rounded=0;orthogonalLoop=1;jettySize=auto;html=1;" parent="1" source="dURBCFSNChAHhOq4-zn5-47" target="dURBCFSNChAHhOq4-zn5-49" edge="1">
          <mxGeometry relative="1" as="geometry" />
        </mxCell>
        <mxCell id="dURBCFSNChAHhOq4-zn5-46" value="false" style="edgeStyle=orthogonalEdgeStyle;rounded=0;orthogonalLoop=1;jettySize=auto;html=1;" parent="1" source="dURBCFSNChAHhOq4-zn5-47" target="dURBCFSNChAHhOq4-zn5-58" edge="1">
          <mxGeometry relative="1" as="geometry" />
        </mxCell>
        <mxCell id="dURBCFSNChAHhOq4-zn5-47" value="&lt;div&gt;num == 1&lt;br&gt;&lt;/div&gt;" style="rhombus;whiteSpace=wrap;html=1;" parent="1" vertex="1">
          <mxGeometry x="370" y="260" width="120" height="80" as="geometry" />
        </mxCell>
        <mxCell id="dURBCFSNChAHhOq4-zn5-48" style="edgeStyle=orthogonalEdgeStyle;rounded=0;orthogonalLoop=1;jettySize=auto;html=1;exitX=1;exitY=0.5;exitDx=0;exitDy=0;entryX=1;entryY=0.25;entryDx=0;entryDy=0;" parent="1" source="dURBCFSNChAHhOq4-zn5-49" target="dURBCFSNChAHhOq4-zn5-55" edge="1">
          <mxGeometry relative="1" as="geometry">
            <mxPoint x="500" y="1210" as="targetPoint" />
            <Array as="points">
              <mxPoint x="800" y="300" />
              <mxPoint x="800" y="1215" />
            </Array>
          </mxGeometry>
        </mxCell>
        <mxCell id="dURBCFSNChAHhOq4-zn5-49" value="neither complex&lt;div&gt;nor simple number&lt;/div&gt;" style="shape=document;whiteSpace=wrap;html=1;boundedLbl=1;" parent="1" vertex="1">
          <mxGeometry x="570" y="260" width="120" height="80" as="geometry" />
        </mxCell>
        <mxCell id="dURBCFSNChAHhOq4-zn5-50" value="true" style="edgeStyle=orthogonalEdgeStyle;rounded=0;orthogonalLoop=1;jettySize=auto;html=1;" parent="1" source="dURBCFSNChAHhOq4-zn5-52" target="dURBCFSNChAHhOq4-zn5-54" edge="1">
          <mxGeometry relative="1" as="geometry" />
        </mxCell>
        <mxCell id="dURBCFSNChAHhOq4-zn5-51" value="false" style="edgeStyle=orthogonalEdgeStyle;rounded=0;orthogonalLoop=1;jettySize=auto;html=1;entryX=0.5;entryY=0;entryDx=0;entryDy=0;" parent="1" source="dURBCFSNChAHhOq4-zn5-52" target="dURBCFSNChAHhOq4-zn5-41" edge="1">
          <mxGeometry relative="1" as="geometry">
            <mxPoint x="430" y="660" as="targetPoint" />
          </mxGeometry>
        </mxCell>
        <mxCell id="dURBCFSNChAHhOq4-zn5-52" value="num % 2 == 0" style="rhombus;whiteSpace=wrap;html=1;" parent="1" vertex="1">
          <mxGeometry x="370" y="530" width="120" height="80" as="geometry" />
        </mxCell>
        <mxCell id="dURBCFSNChAHhOq4-zn5-53" style="edgeStyle=orthogonalEdgeStyle;rounded=0;orthogonalLoop=1;jettySize=auto;html=1;exitX=1;exitY=0.5;exitDx=0;exitDy=0;entryX=1;entryY=0.75;entryDx=0;entryDy=0;" parent="1" source="dURBCFSNChAHhOq4-zn5-54" target="dURBCFSNChAHhOq4-zn5-55" edge="1">
          <mxGeometry relative="1" as="geometry">
            <Array as="points">
              <mxPoint x="880" y="570" />
              <mxPoint x="880" y="1245" />
            </Array>
          </mxGeometry>
        </mxCell>
        <mxCell id="dURBCFSNChAHhOq4-zn5-54" value="complex number" style="shape=document;whiteSpace=wrap;html=1;boundedLbl=1;" parent="1" vertex="1">
          <mxGeometry x="570" y="530" width="120" height="80" as="geometry" />
        </mxCell>
        <mxCell id="dURBCFSNChAHhOq4-zn5-55" value="end" style="rounded=1;whiteSpace=wrap;html=1;" parent="1" vertex="1">
          <mxGeometry x="370" y="1200" width="120" height="60" as="geometry" />
        </mxCell>
        <mxCell id="dURBCFSNChAHhOq4-zn5-56" value="false" style="edgeStyle=orthogonalEdgeStyle;rounded=0;orthogonalLoop=1;jettySize=auto;html=1;" parent="1" source="dURBCFSNChAHhOq4-zn5-58" target="dURBCFSNChAHhOq4-zn5-52" edge="1">
          <mxGeometry relative="1" as="geometry" />
        </mxCell>
        <mxCell id="dURBCFSNChAHhOq4-zn5-57" style="edgeStyle=orthogonalEdgeStyle;rounded=0;orthogonalLoop=1;jettySize=auto;html=1;exitX=1;exitY=0.5;exitDx=0;exitDy=0;entryX=0;entryY=0.5;entryDx=0;entryDy=0;" parent="1" source="dURBCFSNChAHhOq4-zn5-58" target="dURBCFSNChAHhOq4-zn5-60" edge="1">
          <mxGeometry relative="1" as="geometry" />
        </mxCell>
        <mxCell id="dURBCFSNChAHhOq4-zn5-58" value="&lt;div&gt;num == 2&lt;br&gt;&lt;/div&gt;" style="rhombus;whiteSpace=wrap;html=1;" parent="1" vertex="1">
          <mxGeometry x="370" y="390" width="120" height="80" as="geometry" />
        </mxCell>
        <mxCell id="dURBCFSNChAHhOq4-zn5-59" style="edgeStyle=orthogonalEdgeStyle;rounded=0;orthogonalLoop=1;jettySize=auto;html=1;exitX=1;exitY=0.5;exitDx=0;exitDy=0;entryX=1;entryY=0.5;entryDx=0;entryDy=0;" parent="1" source="dURBCFSNChAHhOq4-zn5-60" target="dURBCFSNChAHhOq4-zn5-55" edge="1">
          <mxGeometry relative="1" as="geometry">
            <Array as="points">
              <mxPoint x="840" y="430" />
              <mxPoint x="840" y="1230" />
            </Array>
          </mxGeometry>
        </mxCell>
        <mxCell id="dURBCFSNChAHhOq4-zn5-60" value="simple number" style="shape=document;whiteSpace=wrap;html=1;boundedLbl=1;" parent="1" vertex="1">
          <mxGeometry x="640" y="390" width="120" height="80" as="geometry" />
        </mxCell>
        <mxCell id="dURBCFSNChAHhOq4-zn5-61" value="" style="edgeStyle=orthogonalEdgeStyle;rounded=0;orthogonalLoop=1;jettySize=auto;html=1;" parent="1" source="dURBCFSNChAHhOq4-zn5-62" target="dURBCFSNChAHhOq4-zn5-64" edge="1">
          <mxGeometry relative="1" as="geometry" />
        </mxCell>
        <mxCell id="dURBCFSNChAHhOq4-zn5-62" value="complex number" style="shape=document;whiteSpace=wrap;html=1;boundedLbl=1;" parent="1" vertex="1">
          <mxGeometry x="585" y="835" width="120" height="80" as="geometry" />
        </mxCell>
        <mxCell id="dURBCFSNChAHhOq4-zn5-63" value="" style="edgeStyle=orthogonalEdgeStyle;rounded=0;orthogonalLoop=1;jettySize=auto;html=1;" parent="1" source="dURBCFSNChAHhOq4-zn5-64" target="dURBCFSNChAHhOq4-zn5-66" edge="1">
          <mxGeometry relative="1" as="geometry" />
        </mxCell>
        <mxCell id="dURBCFSNChAHhOq4-zn5-64" value="&lt;div&gt;isComplex = true;&lt;/div&gt;&lt;div&gt;break;&lt;/div&gt;" style="whiteSpace=wrap;html=1;" parent="1" vertex="1">
          <mxGeometry x="585" y="960" width="120" height="60" as="geometry" />
        </mxCell>
        <mxCell id="dURBCFSNChAHhOq4-zn5-65" value="true" style="edgeStyle=orthogonalEdgeStyle;rounded=0;orthogonalLoop=1;jettySize=auto;html=1;" parent="1" source="dURBCFSNChAHhOq4-zn5-66" target="dURBCFSNChAHhOq4-zn5-68" edge="1">
          <mxGeometry relative="1" as="geometry" />
        </mxCell>
        <mxCell id="dURBCFSNChAHhOq4-zn5-66" value="!isComplex" style="rhombus;whiteSpace=wrap;html=1;" parent="1" vertex="1">
          <mxGeometry x="360" y="950" width="140" height="80" as="geometry" />
        </mxCell>
        <mxCell id="dURBCFSNChAHhOq4-zn5-67" value="" style="edgeStyle=orthogonalEdgeStyle;rounded=0;orthogonalLoop=1;jettySize=auto;html=1;" parent="1" source="dURBCFSNChAHhOq4-zn5-68" target="dURBCFSNChAHhOq4-zn5-55" edge="1">
          <mxGeometry relative="1" as="geometry" />
        </mxCell>
        <mxCell id="dURBCFSNChAHhOq4-zn5-68" value="simple number" style="shape=document;whiteSpace=wrap;html=1;boundedLbl=1;" parent="1" vertex="1">
          <mxGeometry x="370" y="1070" width="120" height="80" as="geometry" />
        </mxCell>
      </root>
    </mxGraphModel>
  </diagram>
</mxfile>
